<svg width="25" height="36" viewBox="0 0 25 36" fill="none" xmlns="http://www.w3.org/2000/svg">
<path d="M24.0813 9.18086V8.18086C23.9073 7.3067 22.9774 6.49661 22.0813 6.18086C21.7933 6.08 21.3006 6.3899 21.0813 6.18086C20.8591 5.97183 21.1325 5.482 21.0813 5.18086C20.9863 4.6283 21.1792 3.73197 21.0813 3.18086C20.998 2.70578 20.2977 2.61502 20.0813 2.18086C19.7963 1.59614 19.6646 1.40598 19.0813 1.18086C18.7819 1.06893 18.3915 0.257838 18.0813 0.180864C16.6195 -0.203589 14.5826 0.262726 13.0813 0.180864C11.2786 0.0817445 9.87971 0.0214032 8.0813 0.180864C6.74375 0.302197 5.35308 -0.281066 4.0813 0.180864C3.61645 0.350434 3.43506 0.822722 3.0813 1.18086C2.64715 1.62233 1.76555 2.63123 2.0813 3.18086C2.30642 3.57117 2.67638 3.9996 3.0813 4.18086C3.60755 4.41768 4.51705 4.061 5.0813 4.18086C6.65274 4.52877 8.47624 5.12385 10.0813 5.18086C11.8618 5.25395 13.3081 5.36798 15.0813 5.18086C15.5184 5.13263 15.6457 4.24811 16.0813 4.18086C16.5959 4.10193 17.2333 3.6501 17.0813 3.18086C16.9 2.62099 16.6324 3.09608 16.0813 3.18086C15.4001 3.28904 14.6982 3.12532 14.0813 3.18086C12.3608 3.29781 10.8033 3.29196 9.0813 3.18086C8.51627 3.14348 7.64361 3.24773 7.0813 3.18086C7.19532 3.19694 6.95559 3.16624 7.0813 3.18086C6.72608 3.12824 6.43214 2.25395 6.0813 2.18086C5.91904 2.22033 5.91904 2.1414 6.0813 2.18086C6.48623 2.09316 6.67054 2.23787 7.0813 2.18086C7.2728 2.16771 6.88981 2.20425 7.0813 2.18086C8.74473 2.00821 10.4099 2.12503 12.0813 2.18086C13.0666 2.20864 14.1019 2.06831 15.0813 2.18086H16.0813C16.4716 2.23934 16.6939 2.09754 17.0813 2.18086C17.6543 2.30512 17.8255 2.55375 18.0813 3.18086C18.1617 3.38113 19.036 2.97183 19.0813 3.18086V6.18086C19.1365 6.10214 19.1013 6.27489 19.0813 6.18086C19.1765 6.16755 19.0261 6.25959 19.0813 6.18086C19.1354 6.17356 19.0272 6.18964 19.0813 6.18086C16.7819 6.47423 14.3993 7.18704 12.0813 7.18086C9.78452 7.1785 7.35925 6.47446 5.0813 6.18086C4.87665 6.15601 4.26257 6.20718 4.0813 6.18086C3.60475 6.1107 3.55493 6.25834 3.0813 6.18086C2.50681 6.08585 1.60024 5.89874 1.0813 6.18086C0.65738 6.41475 0.297651 6.74671 0.0813035 7.18086C-0.143814 7.6428 0.180706 7.68385 0.0813035 8.18086C-0.019561 8.67788 0.0213698 9.67069 0.0813035 10.1809C0.20848 11.2816 0.974717 11.9806 2.0813 12.1809C7.55353 13.1574 12.5564 13.7929 18.0813 13.1809C18.2939 13.1567 18.9293 13.0303 19.0813 13.1809C19.2333 13.3315 19.1035 13.968 19.0813 14.1809V15.1809L17.0813 29.1809C17.0214 29.7802 17.1953 30.5888 17.0813 31.1809C16.903 32.112 16.0008 32.9718 15.0813 33.1809C14.2378 33.3724 13.9452 33.1736 13.0813 33.1809C12.1224 33.1867 11.0402 33.1765 10.0813 33.1809C9.0595 33.1867 7.86922 32.941 7.0813 32.1809C6.38695 31.5114 6.17632 30.0857 6.0813 29.1809L5.0813 19.1809V15.1809C5.02722 14.6678 4.65433 14.156 4.0813 14.1809C3.59014 14.2028 3.02283 14.6268 3.0813 15.1809V18.1809L4.0813 31.1809C4.29619 33.1455 6.22189 33.8827 8.0813 34.1809C9.16596 34.3563 9.9791 35.1633 11.0813 35.1809C12.4934 35.2043 13.6926 34.4367 15.0813 34.1809C17.1395 33.8037 18.8606 33.3136 19.0813 31.1809C19.5783 26.3101 20.5828 21.0516 21.0813 16.1809V13.1809C21.1131 12.8702 21.7747 12.2399 22.0813 12.1809C22.6689 12.0668 22.6618 12.6282 23.0813 12.1809C23.7464 11.4675 24.3167 10.1193 24.0813 9.18086ZM22.0813 10.1809C21.8693 10.3811 21.3956 10.1341 21.0813 10.1809C17.5496 10.7057 13.651 11.2978 10.0813 11.1809C7.52607 11.0932 4.61023 10.5375 2.0813 10.1809C2.25233 10.3636 1.8328 10.1458 2.0813 10.1809C1.75971 9.83588 1.99798 9.59748 2.0813 9.18086C2.15732 8.80079 1.62668 8.23495 2.0813 8.18086C2.78882 8.09754 4.37964 8.07561 5.0813 8.18086C5.92477 8.3095 6.23199 8.10339 7.0813 8.18086C10.7066 8.51123 14.4706 8.66326 18.0813 8.18086C18.7391 8.09316 19.4293 8.29781 20.0813 8.18086C20.6646 8.07561 21.7305 7.5786 22.0813 8.18086C22.324 8.59163 22.1193 9.71747 22.0813 10.1809C22.2285 10.0415 22.0698 10.3832 22.0813 10.1809ZM13.0813 16.1809C11.8212 16.7217 9.93633 17.1809 8.0813 17.1809C7.30598 17.179 6.82804 17.3895 6.0813 17.1809L7.0813 30.1809C7.17632 31.3211 7.93671 32.1809 9.0813 32.1809C9.0813 32.1809 11.4747 32.1809 12.0813 32.1809C12.7347 32.1809 14.0813 32.1809 14.0813 32.1809C15.2259 32.1809 15.9863 31.3211 16.0813 30.1809L18.0813 15.1809C17.4614 14.9567 16.7405 15.187 16.0813 15.1809C14.8738 15.1809 14.2054 15.6999 13.0813 16.1809Z" fill="white"/>
</svg>
