<svg width="30" height="31" viewBox="0 0 30 31" fill="none" xmlns="http://www.w3.org/2000/svg">
<path d="M15 0C6.49246 0 0 6.49631 0 15C0 21.8048 3.88304 27.9661 10 30C10.7699 30.145 11 29.4093 11 29C11 28.6343 11.0064 28.2832 11 27C6.71672 27.929 6 25 6 25C5.29938 23.2228 4 22 4 22C2.60517 21.0453 4 21 4 21C5.54624 21.1078 7 23 7 23C8.37301 25.3547 10.1197 24.3939 11 24C11.1386 23.0042 11.5599 22.385 12 22C8.5803 21.615 5 20.9001 5 15C5 13.319 6.01195 12.0779 7 11C6.82677 10.6112 6.17234 8.12111 7 6C7 6 8.05508 6.00849 11 8C12.2319 7.65739 13.6911 8.0077 15 8C16.3089 8.0077 17.7681 7.65739 19 8C21.9257 6.00849 23 6 23 6C23.8277 8.12111 23.154 10.6112 23 11C23.9816 12.0779 25 13.319 25 15C25 20.9155 21.4261 21.6215 18 22C18.5389 22.4619 19 23.5577 19 25C19 27.0608 19 28.4996 19 29C19 29.4042 19.2108 30.154 20 30C26.1606 27.9803 30 21.7945 30 15C30 6.49631 23.5037 0 15 0Z" fill="white"/>
</svg>
