<svg width="37" height="26" viewBox="0 0 37 26" fill="none" xmlns="http://www.w3.org/2000/svg">
<path d="M36 4C35.5765 2.40488 34.5923 1.43395 33 1C30.1287 0.224998 18 0 18 0C18 0 6.87288 0.224998 4 1C2.40846 1.4347 1.42348 2.40543 1 4C0.229601 6.89129 0 13 0 13C0 13 0.229602 19.1087 1 22C1.42347 23.5951 2.4077 24.5661 4 25C6.87134 25.775 18 26 18 26C18 26 30.1271 25.775 33 25C34.5925 24.5663 35.5768 23.5953 36 22C36.7689 19.1087 37 13 37 13C37 13 36.7704 6.89129 36 4ZM15 18V7L24 13L15 18Z" fill="white"/>
</svg>
